<?xml version="1.0" encoding="utf-8"?>
<!-- Generator: Adobe Illustrator 25.4.1, SVG Export Plug-In . SVG Version: 6.00 Build 0)  -->
<svg version="1.1" id="Layer_1" xmlns="http://www.w3.org/2000/svg" xmlns:xlink="http://www.w3.org/1999/xlink" x="0px" y="0px"
	 width="423px" height="35.4px" viewBox="0 0 423 35.4" style="enable-background:new 0 0 423 35.4;" xml:space="preserve">
<style type="text/css">
	.st0{fill:url(#SVGID_1_);}
</style>
<g id="Layer_2_00000049924881738812601850000000294116807017789355_">
	<g id="Layer_1-2">
		
			<linearGradient id="SVGID_1_" gradientUnits="userSpaceOnUse" x1="0" y1="20.29" x2="423.0457" y2="20.29" gradientTransform="matrix(1 0 0 -1 0 38)">
			<stop  offset="0" style="stop-color:#90CEA1"/>
			<stop  offset="0.56" style="stop-color:#3CBEC9"/>
			<stop  offset="1" style="stop-color:#00B3E5"/>
		</linearGradient>
		<path class="st0" d="M227.5,0h8.9l8.8,23.2h0.1L254.1,0h8.4l-14.6,35.4h-6.2L227.5,0z M274.1,0h7.8v35.4h-7.8V0z M296.3,0h24v7.2
			h-16.2v6.6h15.4V21h-15.4v7.2h17.1v7.2h-25L296.3,0z M351.3,0H363c2.7,0,5.4,0.3,8.1,1c2.4,0.5,4.7,1.6,6.7,3
			c1.9,1.5,3.5,3.4,4.5,5.5c1.2,2.6,1.8,5.4,1.7,8.3c0.1,2.6-0.5,5.2-1.6,7.6c-1,2.1-2.5,4-4.4,5.5c-1.9,1.5-4,2.6-6.4,3.4
			c-2.5,0.8-5.1,1.2-7.6,1.2h-12.7L351.3,0z M359.1,28.2h4c1.7,0,3.4-0.2,5-0.5c1.4-0.3,2.8-1,4-1.8c1.2-0.9,2.1-2,2.7-3.3
			c0.7-1.6,1-3.3,1-5.1c0-1.6-0.3-3.1-1-4.5c-0.6-1.2-1.5-2.3-2.6-3.2c-1.2-0.9-2.5-1.5-3.9-1.9c-1.5-0.4-3.1-0.6-4.7-0.6H359
			L359.1,28.2z M395.2,0h13.2c1.5,0,3.1,0.1,4.6,0.3c1.5,0.2,2.9,0.6,4.2,1.3c1.2,0.6,2.3,1.6,3,2.7c0.8,1.4,1.2,3,1.1,4.7
			c0.1,1.8-0.5,3.6-1.7,5c-1.2,1.3-2.7,2.3-4.4,2.8v0.1c1.1,0.2,2.2,0.5,3.2,1c0.9,0.5,1.8,1.1,2.5,1.9c0.7,0.8,1.2,1.7,1.6,2.6
			c0.4,1,0.6,2.1,0.5,3.2c0.1,1.6-0.4,3.3-1.2,4.7c-0.8,1.2-1.8,2.3-3.1,3c-1.3,0.8-2.8,1.3-4.3,1.7c-1.6,0.3-3.1,0.5-4.7,0.5h-14.5
			V0z M403,14.1h5.6c0.6,0,1.2-0.1,1.8-0.2c0.6-0.1,1.1-0.3,1.6-0.6c0.5-0.3,0.9-0.7,1.1-1.2c0.3-0.6,0.4-1.2,0.4-1.8
			c0-0.6-0.1-1.3-0.5-1.8c-0.3-0.5-0.7-0.9-1.2-1.1c-0.5-0.3-1.1-0.5-1.7-0.6c-0.6-0.1-1.2-0.2-1.9-0.2H403V14.1z M403,28.8h7
			c0.6,0,1.2-0.1,1.8-0.2c0.6-0.1,1.2-0.4,1.7-0.7c0.5-0.3,0.9-0.8,1.2-1.3c0.3-0.6,0.5-1.3,0.5-2c0-0.7-0.2-1.4-0.6-2
			c-0.4-0.5-1-0.9-1.6-1.1c-0.6-0.3-1.3-0.5-2-0.6c-0.7-0.1-1.4-0.1-2-0.1h-6V28.8z M204,35.3h1c9.8,0,17.7-7.9,17.7-17.7
			c0,0,0,0,0,0l0,0C222.7,7.9,214.8,0,205,0h-0.9c-9.8,0-17.7,7.9-17.7,17.6c0,0,0,0,0,0l0,0C186.4,27.4,194.3,35.3,204,35.3
			L204,35.3L204,35.3z M10.1,6.9H0V0h28v6.9H17.9v28.5h-7.8V6.9z M39,0h7.8v13.2h15.1V0h7.8v35.4h-7.8V20.1H46.8v15.3H39V0z M80.2,0
			h24v7.2H88v6.6h15.3V21H88v7.2h17.2v7.2h-25L80.2,0z M135.2,0H147l8.1,23.1h0.1L163.4,0h11.8v35.4h-7.8V8.2h-0.1L158,35.4h-5.9
			l-9-27.1H143v27.1h-7.8V0z"/>
	</g>
</g>
</svg>
